{"asset":{"generator":"Khronos glTF Spline I/O v0.0.1","version":"2.0"},"scenes":[{"nodes":[0]}],"nodes":[{"name":"","children":[1,2,3,8],"matrix":[0.01,0,0,0,0,0.01,0,0,0,0,0.01,0,0,0,0,1]},{"name":"","camera":0,"translation":[-629.9251361850467,612.5602039889031,766.7716888190256],"rotation":[-0.22992731488263302,-0.32823953521723753,-0.08271344420665032,0.9124421754493309]},{"name":"Directional Light","translation":[200,300,300],"rotation":[-0.4062840720729887,0.12301291902225084,-0.2623788760260691,0.8665785595944042],"extensions":{"KHR_lights_punctual":{"light":0}}},{"name":"Riksklubb logo","matrix":[1,0,0,0,0,2.220446049250313e-16,1,0,0,-1,2.220446049250313e-16,0,0,163.32948905941998,-3.7500000000000053,1],"children":[4,5]},{"name":"Text","matrix":[1,0,0,0,0,2.220446049250313e-16,-1,0,0,1,2.220446049250313e-16,0,2.901199340820341,-6.249999999999998,5.940447058947257,1],"mesh":0},{"name":"Boolean","matrix":[0.8881503060925994,0,0,0,0,1,0,0,0,0,0.8512437573408761,0,0,3.750000000000004,0,1],"mesh":1,"children":[6,7]},{"name":"Rectangle","matrix":[1,0,0,0,0,2.220446049250313e-16,-1.0000000000000002,0,0,1.0000000000000002,2.220446049250313e-16,0,0,-12.500000000000002,4.440892098500625e-16,1],"mesh":2},{"name":"Rectangle 2","matrix":[1,0,0,0,0,2.220446049250313e-16,-1.0000000000000002,0,0,1.0000000000000002,2.220446049250313e-16,0,0,-12.500000000000002,4.440892098500625e-16,1],"mesh":3},{"name":"Camera","camera":1,"translation":[0,156.00000000000006,95.2943399398348],"rotation":[-2.842170943040401e-17,0,0,1]}],"cameras":[{"type":"orthographic","orthographic":{"xmag":1792,"ymag":1010,"zfar":100000,"znear":-100000}},{"type":"orthographic","orthographic":{"xmag":1792,"ymag":1010,"zfar":100000,"znear":-100000}}],"meshes":[{"primitives":[{"attributes":{"POSITION":1,"NORMAL":2,"TEXCOORD_0":3},"indices":0}]},{"primitives":[{"attributes":{"POSITION":4,"NORMAL":5,"RANDOMCOLOR":6}}]},{"primitives":[{"attributes":{"POSITION":8,"NORMAL":9,"TEXCOORD_0":10},"indices":7}]},{"primitives":[{"attributes":{"POSITION":12,"NORMAL":13,"TEXCOORD_0":14},"indices":11}]}],"buffers":[{"uri":"data:application/octet-stream;base64,","byteLength":93928},{"uri":"data:application/octet-stream;base64,","byteLength":222048},{"uri":"data:application/octet-stream;base64,","byteLength":70800},{"uri":"data:application/octet-stream;base64,","byteLength":70800}],"bufferViews":[{"buffer":0,"byteOffset":0,"byteLength":13032,"target":34963},{"buffer":0,"byteOffset":13032,"byteLength":30336,"target":34962},{"buffer":0,"byteOffset":43368,"byteLength":30336,"target":34962},{"buffer":0,"byteOffset":73704,"byteLength":20224,"target":34962},{"buffer":1,"byteOffset":0,"byteLength":74016,"target":34962},{"buffer":1,"byteOffset":74016,"byteLength":74016,"target":34962},{"buffer":1,"byteOffset":148032,"byteLength":74016,"target":34962},{"buffer":2,"byteOffset":0,"byteLength":7824,"target":34963},{"buffer":2,"byteOffset":7824,"byteLength":20992,"target":34962},{"buffer":2,"byteOffset":28816,"byteLength":20992,"target":34962},{"buffer":2,"byteOffset":49808,"byteLength":20992,"target":34962},{"buffer":3,"byteOffset":0,"byteLength":7824,"target":34963},{"buffer":3,"byteOffset":7824,"byteLength":20992,"target":34962},{"buffer":3,"byteOffset":28816,"byteLength":20992,"target":34962},{"buffer":3,"byteOffset":49808,"byteLength":20992,"target":34962}],"accessors":[{"bufferView":0,"byteOffset":0,"componentType":5123,"count":6516,"type":"SCALAR","min":[0],"max":[2527]},{"bufferView":1,"byteOffset":0,"componentType":5126,"count":2528,"type":"VEC3","min":[-213.5272216796875,-22.76175308227539,0],"max":[207.72482299804688,36.414249420166016,20]},{"bufferView":2,"byteOffset":0,"componentType":5126,"count":2528,"type":"VEC3","min":[-1,-1,-1],"max":[1,1,1]},{"bufferView":3,"byteOffset":0,"componentType":5126,"count":2528,"type":"VEC2","min":[0,0],"max":[1,1]},{"bufferView":4,"byteOffset":0,"componentType":5126,"count":6168,"type":"VEC3","min":[-283.3882751464844,-12.5,-50],"max":[283.3882751464844,12.5,50]},{"bufferView":5,"byteOffset":0,"componentType":5126,"count":6168,"type":"VEC3","min":[-0.9999799728393555,-1,-1],"max":[0.9999799728393555,1,1]},{"bufferView":6,"byteOffset":0,"componentType":5126,"count":6168,"type":"VEC3","min":[0.9858821034431458,0.9858821034431458,0.9858821034431458],"max":[0.9858821034431458,0.9858821034431458,0.9858821034431458]},{"bufferView":7,"byteOffset":0,"componentType":5125,"count":1956,"type":"SCALAR","min":[0],"max":[655]},{"bufferView":8,"byteOffset":0,"componentType":5126,"count":656,"type":"VEC3","min":[-283.3882751464844,-50,0],"max":[283.3882751464844,50,25]},{"bufferView":9,"byteOffset":0,"componentType":5126,"count":656,"type":"VEC3","min":[-1,-1,-1],"max":[1,1,1]},{"bufferView":10,"byteOffset":0,"componentType":5126,"count":656,"type":"VEC2","min":[0,0],"max":[1,1]},{"bufferView":11,"byteOffset":0,"componentType":5125,"count":1956,"type":"SCALAR","min":[0],"max":[655]},{"bufferView":12,"byteOffset":0,"componentType":5126,"count":656,"type":"VEC3","min":[-274.36181640625,-41.67868423461914,0],"max":[274.36181640625,41.67868423461914,25]},{"bufferView":13,"byteOffset":0,"componentType":5126,"count":656,"type":"VEC3","min":[-1,-1,-1],"max":[1,1,1]},{"bufferView":14,"byteOffset":0,"componentType":5126,"count":656,"type":"VEC2","min":[0,0],"max":[1,1]}],"extensions":{"KHR_lights_punctual":{"lights":[{"type":"directional","name":"Directional Light","color":[1,1,1],"intensity":0.7}]}},"extensionsUsed":["KHR_lights_punctual"]}